<?xml version="1.0" encoding="utf-8"?>
<!-- Generator: Adobe Illustrator 17.1.0, SVG Export Plug-In . SVG Version: 6.00 Build 0)  -->
<!DOCTYPE svg PUBLIC "-//W3C//DTD SVG 1.1//EN" "http://www.w3.org/Graphics/SVG/1.1/DTD/svg11.dtd">
<svg version="1.1" id="add" xmlns="http://www.w3.org/2000/svg" xmlns:xlink="http://www.w3.org/1999/xlink" x="0px" y="0px"
	 width="20px" height="20px" viewBox="0 0 20 20" enable-background="new 0 0 20 20" xml:space="preserve">
<g>
	<g>
		<path fill="#2BA94D" d="M18.5,9H11V1.5c0-0.6-0.4-1-1-1c-0.6,0-1,0.4-1,1V9H1.5c-0.6,0-1,0.4-1,1c0,0.6,0.4,1,1,1H9v7.5
			c0,0.6,0.4,1,1,1c0.6,0,1-0.4,1-1V11h7.5c0.6,0,1-0.4,1-1C19.5,9.4,19.1,9,18.5,9z"/>
	</g>
</g>
</svg>
