<?xml version="1.0" encoding="utf-8"?>
<!-- Generator: Adobe Illustrator 17.1.0, SVG Export Plug-In . SVG Version: 6.00 Build 0)  -->
<!DOCTYPE svg PUBLIC "-//W3C//DTD SVG 1.1//EN" "http://www.w3.org/Graphics/SVG/1.1/DTD/svg11.dtd">
<svg version="1.1" id="question" xmlns="http://www.w3.org/2000/svg" xmlns:xlink="http://www.w3.org/1999/xlink" x="0px" y="0px"
	 width="40px" height="40px" viewBox="0 0 40 40" enable-background="new 0 0 40 40" xml:space="preserve">
<g>
	<g>
		<path fill="#27A1C5" d="M20,1C13.383,1,8,6.327,8,12.875c0,1.311,1.075,2.375,2.4,2.375c1.325,0,2.4-1.063,2.4-2.375
			c0-3.929,3.23-7.125,7.2-7.125s7.2,3.196,7.2,7.125C27.2,16.804,23.97,20,20,20c-1.325,0-2.4,1.063-2.4,2.375v5.938
			c0,1.312,1.075,2.375,2.4,2.375s2.4-1.063,2.4-2.375v-3.801c5.47-1.104,9.6-5.902,9.6-11.637C32,6.327,26.616,1,20,1z M20,34.25
			c-1.326,0-2.4,1.063-2.4,2.375S18.674,39,20,39s2.4-1.063,2.4-2.375S21.326,34.25,20,34.25z"/>
	</g>
</g>
<g>
</g>
<g>
</g>
<g>
</g>
<g>
</g>
<g>
</g>
<g>
</g>
</svg>
