<?xml version="1.0" encoding="utf-8"?>
<!-- Generator: Adobe Illustrator 17.1.0, SVG Export Plug-In . SVG Version: 6.00 Build 0)  -->
<!DOCTYPE svg PUBLIC "-//W3C//DTD SVG 1.1//EN" "http://www.w3.org/Graphics/SVG/1.1/DTD/svg11.dtd">
<svg version="1.1" id="settings" xmlns="http://www.w3.org/2000/svg" xmlns:xlink="http://www.w3.org/1999/xlink" x="0px" y="0px"
	 width="20px" height="20px" viewBox="0 0 20 20" enable-background="new 0 0 20 20" xml:space="preserve">
<path fill="#27A1C5" d="M18.9,10.5c-1.1-0.3-1.3-2.8-0.4-3.4C18.7,7,19,6.8,19.1,6.5c-0.2-0.8-1-2.1-1.5-2.6c-0.3,0-0.7,0.1-1,0.2
	c-1,0.6-3-0.9-2.7-2.1c0.1-0.4,0-0.8,0-1c-0.6-0.3-1.9-0.7-2.8-0.8c-0.2,0.2-0.4,0.5-0.5,0.9c-0.3,1.2-2.8,1.4-3.4,0.4
	C7,1.2,6.7,0.9,6.5,0.9c-0.6,0.2-2,1-2.6,1.4c0,0.3,0,0.7,0.2,1c0.5,0.9-0.9,3-2.1,2.7C1.7,5.9,1.3,5.9,1,6.1
	C0.7,6.7,0.3,8.2,0.3,8.9C0.3,9,0.8,9.3,1.1,9.4c1.6,0.4,1.6,2.7,0.4,3.4C1.3,13,1,13.3,0.9,13.6c0.2,0.6,1,2,1.5,2.5
	c0.3,0,0.7,0,1-0.2c1-0.6,3,0.8,2.7,2.1c-0.1,0.3,0,0.7,0,1c0.8,0.3,2.1,0.8,2.9,0.8c0.2-0.2,0.4-0.5,0.5-0.9
	c0.3-1.1,2.8-1.5,3.4-0.5c0.2,0.3,0.4,0.6,0.7,0.7c0.8-0.2,2.2-1,2.7-1.5c0-0.4-0.1-0.7-0.3-1c-0.6-1.1,0.8-3,2.1-2.7
	c0.3,0.1,0.7,0.1,1,0c0.3-0.7,0.7-1.9,0.8-2.9C19.5,10.8,19.2,10.6,18.9,10.5z M15.2,11.3c-0.7,2.8-3.6,4.4-6.4,3.7
	C6,14.2,4.4,11.4,5.1,8.6s3.6-4.4,6.4-3.7C14.3,5.6,15.9,8.5,15.2,11.3z"/>
</svg>
