<?xml version="1.0" encoding="utf-8"?>
<!-- Generator: Adobe Illustrator 17.1.0, SVG Export Plug-In . SVG Version: 6.00 Build 0)  -->
<!DOCTYPE svg PUBLIC "-//W3C//DTD SVG 1.1//EN" "http://www.w3.org/Graphics/SVG/1.1/DTD/svg11.dtd">
<svg version="1.1" id="close" xmlns="http://www.w3.org/2000/svg" xmlns:xlink="http://www.w3.org/1999/xlink" x="0px" y="0px"
	 width="40px" height="40px" viewBox="0 0 40 40" enable-background="new 0 0 40 40" xml:space="preserve">
<path fill="#2D3033" d="M38.246,1.759c-1.022-1.022-2.677-1.022-3.699,0L20,16.301L5.454,1.759c-1.022-1.022-2.678-1.022-3.699,0
	c-1.022,1.022-1.022,2.677,0,3.698l14.546,14.542L1.754,34.543c-1.022,1.022-1.022,2.677,0,3.698c0.511,0.511,1.18,0.766,1.85,0.766
	c0.669,0,1.339-0.255,1.85-0.766L20,23.698l14.547,14.543c0.511,0.511,1.18,0.766,1.85,0.766c0.669,0,1.339-0.255,1.85-0.766
	c1.022-1.022,1.022-2.677,0-3.698L23.699,19.999L38.246,5.457C39.268,4.436,39.268,2.781,38.246,1.759z"/>
<g>
</g>
<g>
</g>
<g>
</g>
<g>
</g>
<g>
</g>
<g>
</g>
</svg>
