<?xml version="1.0" encoding="utf-8"?>
<!-- Generator: Adobe Illustrator 17.1.0, SVG Export Plug-In . SVG Version: 6.00 Build 0)  -->
<!DOCTYPE svg PUBLIC "-//W3C//DTD SVG 1.1//EN" "http://www.w3.org/Graphics/SVG/1.1/DTD/svg11.dtd">
<svg version="1.1" id="delete" xmlns="http://www.w3.org/2000/svg" xmlns:xlink="http://www.w3.org/1999/xlink" x="0px" y="0px"
	 width="20px" height="20px" viewBox="0 0 20 20" enable-background="new 0 0 20 20" xml:space="preserve">
<g>
	<g>
		<path fill-rule="evenodd" clip-rule="evenodd" fill="#FFFFFF" d="M11.9,10l7-7c0.5-0.5,0.5-1.4,0-1.9c-0.5-0.5-1.4-0.5-1.9,0l-7,7
			l-7-7c-0.5-0.5-1.4-0.5-1.9,0C0.6,1.7,0.6,2.5,1.1,3l7,7l-7,7c-0.5,0.5-0.5,1.4,0,1.9c0.5,0.5,1.4,0.5,1.9,0l7-7l7,7
			c0.5,0.5,1.4,0.5,1.9,0c0.5-0.5,0.5-1.4,0-1.9L11.9,10z"/>
	</g>
</g>
</svg>
