<?xml version="1.0" encoding="utf-8"?>
<!-- Generator: Adobe Illustrator 17.1.0, SVG Export Plug-In . SVG Version: 6.00 Build 0)  -->
<!DOCTYPE svg PUBLIC "-//W3C//DTD SVG 1.1//EN" "http://www.w3.org/Graphics/SVG/1.1/DTD/svg11.dtd">
<svg version="1.1" id="dragdrop" xmlns="http://www.w3.org/2000/svg" xmlns:xlink="http://www.w3.org/1999/xlink" x="0px" y="0px"
	 width="150px" height="150px" viewBox="0 0 150 150" enable-background="new 0 0 150 150" xml:space="preserve">
<g>
	<g>
		<path fill="#C1C4C3" d="M47.576,82.349l24.083,24.052c0.003,0.003,0.007,0.009,0.011,0.011c0.108,0.109,0.217,0.21,0.328,0.3
			c0.061,0.054,0.125,0.098,0.187,0.144c0.03,0.023,0.057,0.05,0.088,0.071c0.903,0.668,2.013,1.065,3.226,1.068
			c1.209-0.003,2.318-0.399,3.216-1.068c0.042-0.024,0.086-0.058,0.125-0.088c0.048-0.04,0.101-0.079,0.147-0.122
			c0.118-0.095,0.23-0.195,0.344-0.313l24.087-24.06c2.114-2.114,2.114-5.54,0-7.656c-2.119-2.117-5.555-2.117-7.67,0L80.917,89.504
			V48.419c0-2.992-2.428-5.417-5.421-5.417c-2.994,0-5.422,2.425-5.424,5.417l0.001,41.083L55.242,74.688
			c-2.116-2.114-5.55-2.114-7.666,0C45.457,76.806,45.457,80.233,47.576,82.349z M11.027,134.33v-0.835H0v0.835
			C0,142.972,7.029,150,15.671,150h0.027l-0.027-11.028C13.111,138.972,11.027,136.888,11.027,134.33z M0,15.665v0.057l11.027-0.057
			c0-2.56,2.084-4.644,4.644-4.644h0.805V-0.008h-0.805C7.029-0.008,0,7.022,0,15.665z M83.77-0.008H66.947V11.02H83.77V-0.008z
			 M11.027,99.847H0v16.821h11.027V99.847z M50.123-0.008H33.3V11.02h16.824V-0.008z M11.027,66.195H0v16.825h11.027V66.195z
			 M11.027,32.546H0V49.37h11.027V32.546z M66.169,150h16.821v-11.028H66.169V150z M138.971,117.384h11.027v-16.822h-11.027V117.384
			z M138.971,83.735h11.027V66.914h-11.027V83.735z M138.971,50.089h11.027V33.264h-11.027V50.089z M134.33-0.008h-0.091
			l0.091,11.028c2.558,0,4.641,2.084,4.641,4.644v0.775h11.027v-0.775C149.998,7.022,142.972-0.008,134.33-0.008z M32.522,150
			h16.824v-11.028H32.522V150z M99.816,150h16.821v-11.028H99.816V150z M134.33,138.972h-0.867V150h0.867
			c8.642,0,15.669-7.027,15.669-15.67v-0.119l-11.027,0.119C138.971,136.888,136.887,138.972,134.33,138.972z M100.591,11.02h16.827
			V-0.008h-16.827V11.02z"/>
	</g>
</g>
<g>
</g>
<g>
</g>
<g>
</g>
<g>
</g>
<g>
</g>
<g>
</g>
</svg>
