<?xml version="1.0" encoding="utf-8"?>
<!-- Generator: Adobe Illustrator 17.1.0, SVG Export Plug-In . SVG Version: 6.00 Build 0)  -->
<!DOCTYPE svg PUBLIC "-//W3C//DTD SVG 1.1//EN" "http://www.w3.org/Graphics/SVG/1.1/DTD/svg11.dtd">
<svg version="1.1" id="dragdrop" xmlns="http://www.w3.org/2000/svg" xmlns:xlink="http://www.w3.org/1999/xlink" x="0px" y="0px"
	 width="75px" height="75px" viewBox="0 0 75 75" enable-background="new 0 0 75 75" xml:space="preserve">
<g>
	<g>
		<path fill="#C1C4C3" d="M23.8,41.2l12,12c0,0,0,0,0,0c0.1,0.1,0.1,0.1,0.2,0.2c0,0,0.1,0,0.1,0.1c0,0,0,0,0,0
			c0.5,0.3,1,0.5,1.6,0.5c0.6,0,1.2-0.2,1.6-0.5c0,0,0,0,0.1,0c0,0,0.1,0,0.1-0.1c0.1,0,0.1-0.1,0.2-0.2l12-12
			c1.1-1.1,1.1-2.8,0-3.8c-1.1-1.1-2.8-1.1-3.8,0l-7.4,7.4V24.2c0-1.5-1.2-2.7-2.7-2.7c-1.5,0-2.7,1.2-2.7,2.7l0,20.5l-7.4-7.4
			c-1.1-1.1-2.8-1.1-3.8,0C22.7,38.4,22.7,40.1,23.8,41.2z M5.5,67.2v-0.4H0v0.4C0,71.5,3.5,75,7.8,75h0l0-5.5
			C6.6,69.5,5.5,68.4,5.5,67.2z M0,7.8L0,7.8h5.5c0-1.3,1-2.3,2.3-2.3h0.4V0H7.8C3.5,0,0,3.5,0,7.8z M41.9,0h-8.4v5.5h8.4V0z
			 M5.5,49.9H0v8.4h5.5V49.9z M25.1,0h-8.4v5.5h8.4L25.1,0L25.1,0z M5.5,33.1H0v8.4h5.5V33.1z M5.5,16.3H0v8.4h5.5V16.3z M33.1,75
			h8.4v-5.5h-8.4V75z M69.5,58.7H75v-8.4h-5.5L69.5,58.7L69.5,58.7z M69.5,41.9H75v-8.4h-5.5L69.5,41.9L69.5,41.9z M69.5,25H75v-8.4
			h-5.5L69.5,25L69.5,25z M67.2,0L67.2,0v5.5c1.3,0,2.3,1,2.3,2.3v0.4H75V7.8C75,3.5,71.5,0,67.2,0z M16.3,75h8.4v-5.5h-8.4V75z
			 M49.9,75h8.4v-5.5h-8.4V75z M67.2,69.5h-0.4V75h0.4c4.3,0,7.8-3.5,7.8-7.8v-0.1l-5.5,0.1C69.5,68.4,68.4,69.5,67.2,69.5z
			 M50.3,5.5h8.4V0h-8.4V5.5z"/>
	</g>
</g>
</svg>
