<?xml version="1.0" encoding="utf-8"?>
<!-- Generator: Adobe Illustrator 17.1.0, SVG Export Plug-In . SVG Version: 6.00 Build 0)  -->
<!DOCTYPE svg PUBLIC "-//W3C//DTD SVG 1.1//EN" "http://www.w3.org/Graphics/SVG/1.1/DTD/svg11.dtd">
<svg version="1.1" id="question" xmlns="http://www.w3.org/2000/svg" xmlns:xlink="http://www.w3.org/1999/xlink" x="0px" y="0px"
	 width="20px" height="20px" viewBox="0 0 20 20" enable-background="new 0 0 20 20" xml:space="preserve">
<g>
	<g>
		<path fill="#FFFFFF" d="M10,0.5c-3.3,0-6,2.7-6,5.9c0,0.7,0.5,1.2,1.2,1.2s1.2-0.5,1.2-1.2c0-2,1.6-3.6,3.6-3.6s3.6,1.6,3.6,3.6
			S12,10,10,10c-0.7,0-1.2,0.5-1.2,1.2v3c0,0.7,0.5,1.2,1.2,1.2s1.2-0.5,1.2-1.2v-1.9c2.7-0.6,4.8-3,4.8-5.8C16,3.2,13.3,0.5,10,0.5
			z M10,17.1c-0.7,0-1.2,0.5-1.2,1.2s0.5,1.2,1.2,1.2s1.2-0.5,1.2-1.2S10.7,17.1,10,17.1z"/>
	</g>
</g>
</svg>
