<?xml version="1.0" encoding="utf-8"?>
<!-- Generator: Adobe Illustrator 17.1.0, SVG Export Plug-In . SVG Version: 6.00 Build 0)  -->
<!DOCTYPE svg PUBLIC "-//W3C//DTD SVG 1.1//EN" "http://www.w3.org/Graphics/SVG/1.1/DTD/svg11.dtd">
<svg version="1.1" id="log" xmlns="http://www.w3.org/2000/svg" xmlns:xlink="http://www.w3.org/1999/xlink" x="0px" y="0px"
	 width="20px" height="20px" viewBox="0 0 20 20" enable-background="new 0 0 20 20" xml:space="preserve">
<g>
	<g>
		<path fill="#FFFFFF" d="M19.2,0.8H0.8C0.4,0.8,0,1.1,0,1.6v16.8c0,0.5,0.4,0.8,0.8,0.8h18.3c0.5,0,0.8-0.4,0.8-0.8V1.6
			C20,1.1,19.6,0.8,19.2,0.8z M18.7,18H1.3V2.9h17.4L18.7,18L18.7,18z M11.9,10.4H8.1v0.6h3.9V10.4z M4.2,10.8l2.3-2.3l0,0L6.9,8
			l0,0L4.2,5.2L3.7,5.6L6,8l-2.3,2.3L4.2,10.8z"/>
	</g>
</g>
</svg>
