<?xml version="1.0" encoding="utf-8"?>
<!-- Generator: Adobe Illustrator 17.1.0, SVG Export Plug-In . SVG Version: 6.00 Build 0)  -->
<!DOCTYPE svg PUBLIC "-//W3C//DTD SVG 1.1//EN" "http://www.w3.org/Graphics/SVG/1.1/DTD/svg11.dtd">
<svg version="1.1" id="log" xmlns="http://www.w3.org/2000/svg" xmlns:xlink="http://www.w3.org/1999/xlink" x="0px" y="0px"
	 width="40px" height="40px" viewBox="0 0 40 40" enable-background="new 0 0 40 40" xml:space="preserve">
<g>
	<g>
		<path fill="#FFFFFF" d="M38.342,1.505H1.658C0.741,1.505,0,2.26,0,3.191v33.617c0,0.931,0.741,1.686,1.658,1.686h36.684
			c0.917,0,1.658-0.755,1.658-1.686V3.191C40,2.26,39.259,1.505,38.342,1.505z M37.357,35.965H2.643V5.721h34.715V35.965z
			 M23.886,20.896h-7.772v1.264h7.772V20.896z M8.365,21.528l4.602-4.679l0.016,0.016l0.863-0.909l0.016-0.016l-5.497-5.556
			l-0.879,0.892l4.602,4.68l-4.602,4.678L8.365,21.528z"/>
	</g>
</g>
<g>
</g>
<g>
</g>
<g>
</g>
<g>
</g>
<g>
</g>
<g>
</g>
</svg>
