<?xml version="1.0" encoding="utf-8"?>
<!-- Generator: Adobe Illustrator 17.1.0, SVG Export Plug-In . SVG Version: 6.00 Build 0)  -->
<!DOCTYPE svg PUBLIC "-//W3C//DTD SVG 1.1//EN" "http://www.w3.org/Graphics/SVG/1.1/DTD/svg11.dtd">
<svg version="1.1" id="settings" xmlns="http://www.w3.org/2000/svg" xmlns:xlink="http://www.w3.org/1999/xlink" x="0px" y="0px"
	 width="40px" height="40px" viewBox="0 0 40 40" enable-background="new 0 0 40 40" xml:space="preserve">
<path fill="#FFFFFF" d="M37.755,21.065c-2.177-0.584-2.67-5.693-0.884-6.725c0.585-0.34,1.039-0.821,1.339-1.377
	c-0.465-1.695-2.049-4.137-2.944-5.224c-0.654-0.03-1.322,0.119-1.931,0.471c-1.948,1.126-5.975-1.886-5.375-4.129
	c0.188-0.701,0.089-1.55-0.064-2.047c-1.107-0.573-3.729-1.344-5.677-1.535c-0.42,0.306-0.9,1.044-1.087,1.75
	c-0.635,2.371-5.663,2.716-6.741,0.847c-0.36-0.625-1.023-1.206-1.481-1.397c-1.26,0.382-3.997,1.97-5.104,2.887
	c0.076,0.649,0.091,1.404,0.463,2.048c1.078,1.869-1.841,6.026-4.145,5.408c-0.758-0.203-1.554-0.145-2.203,0.122
	c-0.535,1.185-1.344,4.31-1.42,5.571c0.153,0.344,1.064,0.948,1.793,1.143c3.137,0.841,3.161,5.445,0.889,6.758
	c-0.642,0.371-1.192,0.886-1.421,1.536c0.382,1.222,1.916,3.91,2.909,5.057c0.649,0.076,1.403-0.091,2.047-0.463
	c2.03-1.174,6.089,1.586,5.403,4.149c-0.178,0.667-0.08,1.369,0.035,2.057c1.527,0.649,4.29,1.563,5.817,1.525
	c0.496-0.459,0.802-1.098,0.977-1.75c0.601-2.244,5.559-2.96,6.73-0.928c0.327,0.568,0.785,1.107,1.32,1.413
	c1.603-0.459,4.422-2.037,5.377-3.03c0.037-0.726-0.236-1.332-0.575-1.921c-1.266-2.193,1.692-6.034,4.124-5.381
	c0.666,0.178,1.392,0.118,2.003-0.035c0.534-1.338,1.42-3.727,1.572-5.714C38.966,21.541,38.459,21.254,37.755,21.065z
	 M30.344,22.547c-1.485,5.549-7.183,8.841-12.727,7.355c-5.543-1.487-8.832-7.191-7.347-12.74c1.485-5.549,7.183-8.841,12.726-7.354
	C28.539,11.294,31.829,16.997,30.344,22.547z"/>
<g>
</g>
<g>
</g>
<g>
</g>
<g>
</g>
<g>
</g>
<g>
</g>
</svg>
