<?xml version="1.0" encoding="utf-8"?>
<!-- Generator: Adobe Illustrator 17.1.0, SVG Export Plug-In . SVG Version: 6.00 Build 0)  -->
<!DOCTYPE svg PUBLIC "-//W3C//DTD SVG 1.1//EN" "http://www.w3.org/Graphics/SVG/1.1/DTD/svg11.dtd">
<svg version="1.1" id="start" xmlns="http://www.w3.org/2000/svg" xmlns:xlink="http://www.w3.org/1999/xlink" x="0px" y="0px"
	 width="30px" height="30px" viewBox="0 0 30 30" enable-background="new 0 0 30 30" xml:space="preserve">
<g>
	<g>
		<path fill="#999999" d="M15,1C7.3,1,1,7.3,1,15s6.3,14,14,14c7.7,0,14-6.3,14-14C29,7.3,22.7,1,15,1z M15,27.4
			C8.2,27.4,2.6,21.8,2.6,15S8.2,2.6,15,2.6S27.4,8.2,27.4,15S21.8,27.4,15,27.4z M13.5,7.9c-0.3-0.3-0.8-0.3-1.1,0
			c-0.3,0.3-0.3,0.8,0,1.1l6,6l-6,6c-0.3,0.3-0.3,0.8,0,1.1c0.2,0.2,0.4,0.2,0.6,0.2s0.4-0.1,0.6-0.2l6.6-6.6c0.3-0.3,0.3-0.8,0-1.1
			L13.5,7.9z"/>
	</g>
</g>
</svg>
