<?xml version="1.0" encoding="utf-8"?>
<!-- Generator: Adobe Illustrator 17.1.0, SVG Export Plug-In . SVG Version: 6.00 Build 0)  -->
<!DOCTYPE svg PUBLIC "-//W3C//DTD SVG 1.1//EN" "http://www.w3.org/Graphics/SVG/1.1/DTD/svg11.dtd">
<svg version="1.1" id="stop" xmlns="http://www.w3.org/2000/svg" xmlns:xlink="http://www.w3.org/1999/xlink" x="0px" y="0px"
	 width="30px" height="30px" viewBox="0 0 30 30" enable-background="new 0 0 30 30" xml:space="preserve">
<g>
	<g>
		<path fill="#999999" d="M19.5,9.5h-9c-0.6,0-1,0.4-1,1v9c0,0.6,0.4,1,1,1h9c0.6,0,1-0.4,1-1v-9C20.5,9.9,20.1,9.5,19.5,9.5z
			 M20.8,1H9.2L1,9.2v11.6L9.2,29h11.6l8.2-8.2V9.2L20.8,1z M27.6,20.2l-7.4,7.4H9.8l-7.4-7.4V9.8l7.4-7.4h10.4l7.4,7.4
			C27.6,9.8,27.6,20.2,27.6,20.2z"/>
	</g>
</g>
</svg>
