<?xml version="1.0" encoding="utf-8"?>
<!-- Generator: Adobe Illustrator 17.1.0, SVG Export Plug-In . SVG Version: 6.00 Build 0)  -->
<!DOCTYPE svg PUBLIC "-//W3C//DTD SVG 1.1//EN" "http://www.w3.org/Graphics/SVG/1.1/DTD/svg11.dtd">
<svg version="1.1" id="warning" xmlns="http://www.w3.org/2000/svg" xmlns:xlink="http://www.w3.org/1999/xlink" x="0px" y="0px"
	 width="20px" height="20px" viewBox="0 0 20 20" enable-background="new 0 0 20 20" xml:space="preserve">
<path fill="#FF5122" d="M16.4,18.5H3.6c-1.3,0-2.3-0.5-2.7-1.3c-0.5-0.8-0.4-1.9,0.3-3L7.5,3.2C8.2,2.1,9,1.5,10,1.5
	c1,0,1.8,0.6,2.5,1.7l6.4,11.1c0.6,1.1,0.7,2.2,0.3,3C18.7,18.1,17.7,18.5,16.4,18.5z M11.3,14.6c0-0.7-0.5-1.2-1.2-1.2
	c-0.7,0-1.2,0.5-1.2,1.2c0,0.7,0.5,1.2,1.2,1.2C10.8,15.8,11.3,15.3,11.3,14.6z M11.3,7.4c0-0.7-0.6-1.2-1.2-1.2S8.9,6.7,8.9,7.4
	l0.3,4.4h0c0,0.5,0.4,0.9,0.9,0.9c0.5,0,0.8-0.3,0.9-0.8c0,0,0-0.1,0-0.1h0L11.3,7.4z"/>
</svg>
