<?xml version="1.0" encoding="utf-8"?>
<!-- Generator: Adobe Illustrator 17.1.0, SVG Export Plug-In . SVG Version: 6.00 Build 0)  -->
<!DOCTYPE svg PUBLIC "-//W3C//DTD SVG 1.1//EN" "http://www.w3.org/Graphics/SVG/1.1/DTD/svg11.dtd">
<svg version="1.1" id="stop" xmlns="http://www.w3.org/2000/svg" xmlns:xlink="http://www.w3.org/1999/xlink" x="0px" y="0px"
	 width="60px" height="60px" viewBox="0 0 60 60" enable-background="new 0 0 60 60" xml:space="preserve">
<g>
	<g>
		<path fill="#999999" d="M39.001,18.997h-18c-1.105,0-2,0.895-2,2v18c0,1.105,0.895,2,2,2h18c1.105,0,2-0.895,2-2v-18
			C41.001,19.892,40.105,18.997,39.001,18.997z M41.599,1.998H18.401L1.998,18.401v23.198l16.403,16.403h23.198l16.403-16.403
			V18.401L41.599,1.998z M55.202,40.439L40.439,55.202H19.561L4.798,40.439V19.561L19.561,4.798h20.878l14.763,14.763V40.439z"/>
	</g>
</g>
<g>
</g>
<g>
</g>
<g>
</g>
<g>
</g>
<g>
</g>
<g>
</g>
</svg>
